<svg version="1.1" xmlns="http://www.w3.org/2000/svg" xmlns:xlink="http://www.w3.org/1999/xlink" width="479.49156" height="293.03378" viewBox="0,0,479.49156,293.03378"><g transform="translate(-0.25422,-67.34497)"><g data-paper-data="{&quot;isPaintingLayer&quot;:true}" fill-rule="nonzero" stroke="#000000" stroke-width="0" stroke-linecap="butt" stroke-linejoin="miter" stroke-miterlimit="10" stroke-dasharray="" stroke-dashoffset="0" style="mix-blend-mode: normal"><path d="M0.25422,293.48386v-151.79044c0,0 55.47826,-73.67577 100.85689,-73.67577c25.47634,0 -4.46575,60.8734 46.49807,67.34163c23.32296,2.9601 71.82672,-11.70036 94.52444,-30.47842c6.05835,-5.01213 34.51226,15.9758 40.26081,11.17583c20.71934,-5.73904 -13.98719,-12.98728 -6.08433,-13.64256c5.83811,-0.48408 34.13981,-14.34659 41.48853,-14.99245c1.0172,-0.0894 48.05158,17.13058 49.074,17.03177c39.53507,16.5196 22.33282,33.64307 49.53644,41.71145c35.6466,10.57251 63.33672,-11.979 63.33672,-11.979v159.29795z" fill="#9d42ca"/><path d="M0.25422,360.37875v-228.46922c0,0 35.95874,-64.56456 81.33737,-64.56456c25.47633,0 15.05377,91.21225 66.01759,99.14351c23.32296,3.62964 47.8027,-18.02907 70.50042,-41.05448c6.05834,-6.14581 22.50024,-15.39199 28.24879,-21.27765c20.71933,-7.03714 22.04885,-8.56034 29.95171,-9.36384c5.83811,-0.59357 19.12479,-1.02151 26.47351,-1.81345c1.0172,-0.10962 31.53506,6.27632 32.55748,6.15517c39.53506,20.25612 53.86435,70.71063 81.06797,80.60398c35.64659,12.96387 63.33671,-47.82867 63.33671,-47.82867v228.46922z" fill="#9966ff"/></g></g></svg>